<?xml version="1.0" encoding="UTF-8" standalone="no"?>
<!DOCTYPE svg PUBLIC "-//W3C//DTD SVG 1.1//EN" "http://www.w3.org/Graphics/SVG/1.1/DTD/svg11.dtd">
<svg width="100%" height="100%" viewBox="0 0 121 88" version="1.1" xmlns="http://www.w3.org/2000/svg" xmlns:xlink="http://www.w3.org/1999/xlink" xml:space="preserve" xmlns:serif="http://www.serif.com/" style="fill-rule:evenodd;clip-rule:evenodd;stroke-linejoin:round;stroke-miterlimit:2;">
    <g transform="matrix(1,0,0,1,-441.607,-139.933)">
        <g transform="matrix(2.73003,0,0,2.73003,441.607,123.553)">
            <path d="M3,21L1,21C0.448,21 0,21.447 0,22C0,22.553 0.448,23 1,23L3,23C3.552,23 4,22.553 4,22C4,21.447 3.552,21 3,21ZM43,21L41,21C40.448,21 40,21.447 40,22C40,22.553 40.448,23 41,23L43,23C43.552,23 44,22.553 44,22C44,21.447 43.552,21 43,21Z" style="fill:rgb(141,174,15);"/>
        </g>
        <g transform="matrix(2.73003,0,0,2.73003,441.607,123.553)">
            <path d="M36,14C35.448,14 35,14.447 35,15L35,29C35,29.553 35.448,30 36,30C36.552,30 37,29.553 37,29L37,15C37,14.447 36.552,14 36,14ZM16,14C15.448,14 15,14.447 15,15L15,29C15,29.553 15.448,30 16,30C16.552,30 17,29.553 17,29L17,15C17,14.447 16.552,14 16,14ZM8,18C7.448,18 7,18.447 7,19L7,25C7,25.553 7.448,26 8,26C8.552,26 9,25.553 9,25L9,19C9,18.447 8.552,18 8,18ZM32,11.018C31.448,11.018 31,11.465 31,12.018L31,33C31,33.553 31.448,34 32,34C32.552,34 33,33.553 33,33L33,12.018C33,11.465 32.552,11.018 32,11.018ZM24,10.727C23.448,10.727 23,11.174 23,11.727L23,33C23,33.553 23.448,34 24,34C24.552,34 25,33.553 25,33L25,11.727C25,11.174 24.552,10.727 24,10.727ZM12,10C11.448,10 11,10.447 11,11L11,33C11,33.553 11.448,34 12,34C12.552,34 13,33.553 13,33L13,11C13,10.447 12.552,10 12,10ZM28,6C27.448,6 27,6.447 27,7L27,37C27,37.553 27.448,38 28,38C28.552,38 29,37.553 29,37L29,7C29,6.447 28.552,6 28,6ZM20,6C19.448,6 19,6.447 19,7L19,37C19,37.553 19.448,38 20,38C20.552,38 21,37.553 21,37L21,7C21,6.447 20.552,6 20,6Z" style="fill:rgb(141,174,15);"/>
        </g>
    </g>
</svg>
