<?xml version="1.0" encoding="UTF-8" standalone="no"?>
<!DOCTYPE svg PUBLIC "-//W3C//DTD SVG 1.1//EN" "http://www.w3.org/Graphics/SVG/1.1/DTD/svg11.dtd">
<svg width="100%" height="100%" viewBox="0 0 123 92" version="1.1" xmlns="http://www.w3.org/2000/svg" xmlns:xlink="http://www.w3.org/1999/xlink" xml:space="preserve" xmlns:serif="http://www.serif.com/" style="fill-rule:evenodd;clip-rule:evenodd;stroke-linejoin:round;stroke-miterlimit:2;">
    <g transform="matrix(1,0,0,1,-178.507,-134.962)">
        <g transform="matrix(2.73003,0,0,2.73003,178.507,118.582)">
            <path d="M3,21L1,21C0.448,21 0,21.447 0,22C0,22.553 0.448,23 1,23L3,23C3.552,23 4,22.553 4,22C4,21.447 3.552,21 3,21ZM43,21L41,21C40.448,21 40,21.447 40,22C40,22.553 40.448,23 41,23L43,23C43.552,23 44,22.553 44,22C44,21.447 43.552,21 43,21Z" style="fill:rgb(141,174,15);fill-opacity:0.5;"/>
        </g>
        <g transform="matrix(2.73003,0,0,2.73003,178.507,118.582)">
            <path d="M36,14C35.448,14 35,14.447 35,15L35,29C35,29.553 35.448,30 36,30C36.552,30 37,29.553 37,29L37,15C37,14.447 36.552,14 36,14ZM16,14C15.448,14 15,14.447 15,15L15,29C15,29.553 15.448,30 16,30C16.552,30 17,29.553 17,29L17,15C17,14.447 16.552,14 16,14ZM8,18C7.448,18 7,18.447 7,19L7,25C7,25.553 7.448,26 8,26C8.552,26 9,25.553 9,25L9,19C9,18.447 8.552,18 8,18ZM32,11.018C31.448,11.018 31,11.465 31,12.018L31,33C31,33.553 31.448,34 32,34C32.552,34 33,33.553 33,33L33,12.018C33,11.465 32.552,11.018 32,11.018ZM24,10.727C23.448,10.727 23,11.174 23,11.727L23,33C23,33.553 23.448,34 24,34C24.552,34 25,33.553 25,33L25,11.727C25,11.174 24.552,10.727 24,10.727ZM12,10C11.448,10 11,10.447 11,11L11,33C11,33.553 11.448,34 12,34C12.552,34 13,33.553 13,33L13,11C13,10.447 12.552,10 12,10ZM28,6C27.448,6 27,6.447 27,7L27,37C27,37.553 27.448,38 28,38C28.552,38 29,37.553 29,37L29,7C29,6.447 28.552,6 28,6ZM20,6C19.448,6 19,6.447 19,7L19,37C19,37.553 19.448,38 20,38C20.552,38 21,37.553 21,37L21,7C21,6.447 20.552,6 20,6Z" style="fill:rgb(141,174,15);fill-opacity:0.5;"/>
        </g>
        <g transform="matrix(2.73003,0,0,2.73003,181.286,118.582)">
            <path d="M3,21L1,21C0.448,21 0,21.447 0,22C0,22.553 0.448,23 1,23L3,23C3.552,23 4,22.553 4,22C4,21.447 3.552,21 3,21ZM43,21L41,21C40.448,21 40,21.447 40,22C40,22.553 40.448,23 41,23L43,23C43.552,23 44,22.553 44,22C44,21.447 43.552,21 43,21Z" style="fill:rgb(161,14,16);"/>
        </g>
        <g transform="matrix(2.73003,0,0,2.73003,181.286,118.582)">
            <path d="M36,12.546C35.448,12.546 35,12.993 35,13.546L35,27.691C35,28.244 35.448,28.691 36,28.691C36.552,28.691 37,28.244 37,27.691L37,13.546C37,12.993 36.552,12.546 36,12.546ZM16,12.546C15.448,12.546 15,12.993 15,13.546L15,27.691C15,28.244 15.448,28.691 16,28.691C16.552,28.691 17,28.244 17,27.691L17,13.546C17,12.993 16.552,12.546 16,12.546ZM8,18C7.448,18 7,18.447 7,19L7,26.454C7,27.007 7.448,27.454 8,27.454C8.552,27.454 9,27.007 9,26.454L9,19C9,18.447 8.552,18 8,18ZM32,10C31.448,10 31,10.447 31,11L31,34.454C31,35.007 31.448,35.454 32,35.454C32.552,35.454 33,35.007 33,34.454L33,11C33,10.447 32.552,10 32,10ZM24,10C23.448,10 23,10.447 23,11L23,31.691C23,32.244 23.448,32.691 24,32.691C24.552,32.691 25,32.244 25,31.691L25,11C25,10.447 24.552,10 24,10ZM12,10.727C11.448,10.727 11,11.174 11,11.727L11,34.454C11,35.007 11.448,35.454 12,35.454C12.552,35.454 13,35.007 13,34.454L13,11.727C13,11.174 12.552,10.727 12,10.727ZM28,7.89C27.448,7.89 27,8.337 27,8.89L27,38.454C27,39.007 27.448,39.454 28,39.454C28.552,39.454 29,39.007 29,38.454L29,8.89C29,8.337 28.552,7.89 28,7.89ZM20,7.309C19.448,7.309 19,7.756 19,8.309L19,38.454C19,39.007 19.448,39.454 20,39.454C20.552,39.454 21,39.007 21,38.454L21,8.309C21,7.756 20.552,7.309 20,7.309Z" style="fill:rgb(161,14,16);"/>
        </g>
    </g>
</svg>
